



<svg width="55" height="60" viewBox="0 0 102 87" fill="none" xmlns="http://www.w3.org/2000/svg">
<path
d="M5.06153 77.5681C2.86779 77.5681 4.74132 74.2417 4.822 72.9105C4.89363 71.7285 6.35906 70.7613 7.11088 70.0095C7.93298 69.1874 9.10326 68.2754 10.0918 67.694C10.8474 67.2495 11.2622 66.0962 12.1145 65.6313C13.5308 64.8588 14.7597 63.6484 16.2132 62.8234C17.9289 61.8496 19.6092 60.6368 21.31 59.6163C22.2285 59.0652 23.5357 58.332 24.1045 57.4472C26.7548 53.3246 29.6829 49.4554 33.8323 46.7879C34.7652 46.1882 35.5998 45.2646 36.4406 44.5123C37.3002 43.7432 37.6784 42.8221 38.4899 42.0105C39.2769 41.2235 40.0964 40.3762 40.7522 39.4289C41.3291 38.5956 42.8867 36.0523 43.8661 35.8891C44.4836 35.7862 45.8809 34.0236 46.3812 33.6002C46.9467 33.1218 47.2019 32.4177 47.712 31.9501C48.2735 31.4353 48.9319 31.2225 49.4287 30.6193C50.0682 29.8428 51.8763 28.4797 52.8354 28.224C54.1744 27.8669 55.3752 26.8452 56.5615 26.2012C57.7308 25.5665 58.7141 24.7719 59.9016 24.1386C61.242 23.4237 62.3953 22.9171 63.508 21.863C63.7692 21.6155 64.1559 21.2707 64.4661 21.0912C65.1098 20.7185 65.1839 20.0387 65.6505 19.4943C66.4366 18.5771 67.0051 17.4646 67.6865 16.4735C68.5402 15.2317 69.6432 13.8673 70.694 12.7873C71.532 11.926 72.3576 10.7733 73.2357 9.99274C73.8739 9.42551 74.2417 8.9518 74.979 8.44907C75.7103 7.95048 76.4379 7.36229 76.9751 6.66587C77.8426 5.54134 79.0399 5.70054 80.0359 4.98913C81.509 3.93685 83.9825 4.63108 85.6649 4.25722C87.3779 3.87655 89.2646 4.03099 91.0545 4.03099"
stroke="#AD07C8"
stroke-width="7"
stroke-linecap="round"
/>
<path
d="M98.2405 91.7007C98.0339 89.8411 95.3306 87.8592 94.0619 86.5906C92.4771 85.0057 91.2348 82.878 90.1096 80.8151C89.5142 79.7235 88.348 79.5751 87.6477 78.6593C86.9922 77.8021 86.0939 76.9044 85.5185 76.0244C84.9438 75.1455 84.9352 74.1045 84.2144 73.2565C83.9662 72.9645 83.8817 72.3774 83.6289 72.0056C83.3126 71.5405 83.3306 70.9022 83.0966 70.3821C82.3948 68.8225 81.6014 67.5307 80.0891 66.6027C77.1784 64.8166 74.7358 62.1578 71.5058 60.8938C68.3514 59.6595 65.4795 57.4473 63.0156 55.2914C60.7538 53.3123 59.2063 50.8473 57.2668 48.5844C55.765 46.8323 54.1761 44.9999 52.862 43.0884C52.4881 42.5446 51.9778 42.4737 51.6377 41.8908C51.29 41.2947 50.2695 40.6881 49.748 40.214C48.1392 38.7514 46.8122 37.0218 45.117 35.6496C43.692 34.496 42.369 33.2146 40.9385 32.0565C40.3448 31.5759 39.8084 31.0425 39.2085 30.5661C38.6535 30.1253 38.457 29.3721 37.8245 29.1289C36.3459 28.5602 35.4863 26.9487 34.1783 26.2012C32.9924 25.5236 31.981 24.3427 30.9579 23.4333C29.8626 22.4597 29.2377 20.9753 27.9371 20.2129C27.1264 19.7377 26.4048 19.652 25.7414 18.9886C24.9363 18.1835 24.0854 18.0427 23.173 17.5514C22.0822 16.964 19.9077 15.8218 19.1941 14.9298C19.0636 14.7668 18.8695 14.8373 18.6884 14.7568C18.0535 14.4746 17.6108 13.7692 17.0383 13.3728C16.202 12.7939 15.4232 12.1692 14.5631 11.6163C13.7291 11.0801 13.6593 9.08264 14.1638 8.26277C14.7884 7.24786 16.6174 7.57104 17.6238 7.62401C18.1018 7.64916 19.679 7.9451 20.099 8.20954C20.6662 8.56669 21.0001 9.32168 21.6426 9.59351C23.2843 10.2881 23.1283 11.5694 24.1445 12.7075C25.0138 13.6811 25.1684 15.219 26.3269 15.8214C26.9433 16.142 27.4819 17.9718 27.8173 18.6426C28.1571 19.3222 28.3473 20.0107 28.669 20.692C29.4162 22.2743 29.6936 23.6328 30.9313 24.8705"
stroke="#AD07C8"
stroke-width="7"
stroke-linecap="round"
/>
</svg>